<svg xmlns="http://www.w3.org/2000/svg" viewBox="0 0 800 500" fill="none">
  <rect width="800" height="500" rx="8" fill="#0f0f17"/>
  <rect x="40" y="30" width="480" height="300" rx="12" fill="#1a1a2e"/>
  <rect x="55" y="50" width="450" height="250" rx="8" fill="#12121e"/>
  <rect x="80" y="80" width="80" height="120" rx="8" fill="#22c55e" opacity="0.15" stroke="#22c55e" stroke-width="1"/>
  <circle cx="120" cy="110" r="15" fill="#22c55e" opacity="0.2"/>
  <rect x="105" y="135" width="30" height="40" rx="4" fill="#22c55e" opacity="0.15"/>
  <rect x="85" y="170" width="70" height="8" rx="2" fill="#22c55e" opacity="0.4"/>
  <rect x="95" y="182" width="50" height="6" rx="2" fill="#1f1f33"/>
  <rect x="190" y="80" width="80" height="120" rx="8" fill="#06b6d4" opacity="0.15" stroke="#06b6d4" stroke-width="1"/>
  <circle cx="230" cy="110" r="15" fill="#06b6d4" opacity="0.2"/>
  <rect x="215" y="135" width="30" height="40" rx="4" fill="#06b6d4" opacity="0.15"/>
  <rect x="195" y="170" width="70" height="8" rx="2" fill="#06b6d4" opacity="0.4"/>
  <rect x="205" y="182" width="50" height="6" rx="2" fill="#1f1f33"/>
  <rect x="300" y="80" width="80" height="120" rx="8" fill="#f59e0b" opacity="0.15" stroke="#f59e0b" stroke-width="1"/>
  <circle cx="340" cy="110" r="15" fill="#f59e0b" opacity="0.2"/>
  <rect x="325" y="135" width="30" height="40" rx="4" fill="#f59e0b" opacity="0.15"/>
  <rect x="305" y="170" width="70" height="8" rx="2" fill="#f59e0b" opacity="0.4"/>
  <rect x="315" y="182" width="50" height="6" rx="2" fill="#1f1f33"/>
  <rect x="410" y="80" width="80" height="120" rx="8" fill="#7c3aed" opacity="0.15" stroke="#7c3aed" stroke-width="1"/>
  <circle cx="450" cy="110" r="15" fill="#7c3aed" opacity="0.2"/>
  <rect x="435" y="135" width="30" height="40" rx="4" fill="#7c3aed" opacity="0.15"/>
  <rect x="415" y="170" width="70" height="8" rx="2" fill="#7c3aed" opacity="0.4"/>
  <rect x="425" y="182" width="50" height="6" rx="2" fill="#1f1f33"/>
  <rect x="80" y="220" width="400" height="60" rx="8" fill="#1a1a2e"/>
  <rect x="100" y="235" width="80" height="10" rx="3" fill="#22c55e" opacity="0.5"/>
  <rect x="100" y="250" width="60" height="8" rx="3" fill="#1f1f33"/>
  <rect x="200" y="235" width="100" height="10" rx="3" fill="#06b6d4" opacity="0.5"/>
  <rect x="200" y="250" width="70" height="8" rx="3" fill="#1f1f33"/>
  <rect x="340" y="235" width="80" height="10" rx="3" fill="#f59e0b" opacity="0.5"/>
  <rect x="340" y="250" width="50" height="8" rx="3" fill="#1f1f33"/>
  <rect x="540" y="30" width="220" height="300" rx="12" fill="#1a1a2e"/>
  <rect x="555" y="50" width="190" height="16" rx="4" fill="#2a2a3e"/>
  <rect x="555" y="80" width="190" height="50" rx="8" fill="#22c55e" opacity="0.1"/>
  <rect x="570" y="90" width="80" height="12" rx="3" fill="#22c55e" opacity="0.4"/>
  <rect x="570" y="108" width="120" height="8" rx="3" fill="#1f1f33"/>
  <rect x="555" y="140" width="190" height="50" rx="8" fill="#06b6d4" opacity="0.1"/>
  <rect x="570" y="150" width="80" height="12" rx="3" fill="#06b6d4" opacity="0.4"/>
  <rect x="570" y="168" width="100" height="8" rx="3" fill="#1f1f33"/>
  <rect x="555" y="200" width="190" height="50" rx="8" fill="#f59e0b" opacity="0.1"/>
  <rect x="570" y="210" width="80" height="12" rx="3" fill="#f59e0b" opacity="0.4"/>
  <rect x="570" y="228" width="110" height="8" rx="3" fill="#1f1f33"/>
  <rect x="555" y="260" width="190" height="50" rx="8" fill="#7c3aed" opacity="0.1"/>
  <rect x="570" y="270" width="80" height="12" rx="3" fill="#7c3aed" opacity="0.4"/>
  <rect x="570" y="288" width="90" height="8" rx="3" fill="#1f1f33"/>
  <rect x="40" y="350" width="720" height="120" rx="12" fill="#1a1a2e"/>
  <rect x="60" y="370" width="140" height="14" rx="4" fill="#2a2a3e"/>
  <rect x="60" y="400" width="680" height="50" rx="8" fill="#12121e"/>
  <rect x="80" y="410" width="120" height="30" rx="6" fill="#22c55e" opacity="0.2"/>
  <rect x="210" y="410" width="100" height="30" rx="6" fill="#06b6d4" opacity="0.2"/>
  <rect x="320" y="410" width="110" height="30" rx="6" fill="#f59e0b" opacity="0.2"/>
  <rect x="440" y="410" width="90" height="30" rx="6" fill="#7c3aed" opacity="0.2"/>
  <rect x="540" y="410" width="80" height="30" rx="6" fill="#ef4444" opacity="0.2"/>
</svg>
