<svg xmlns="http://www.w3.org/2000/svg" width="1280" height="800" viewBox="0 0 1280 800">
  <rect width="1280" height="800" fill="#111118"/>
  <rect x="0" y="0" width="220" height="800" fill="#1a1a28" stroke="#2a2a3a" stroke-width="1"/>
  <rect x="30" y="30" width="100" height="12" rx="6" fill="#7c3aed" opacity="0.6"/>
  <rect x="30" y="70" width="160" height="10" rx="5" fill="#7c3aed" opacity="0.4"/>
  <rect x="30" y="100" width="140" height="10" rx="5" fill="#94a3b8" opacity="0.15"/>
  <rect x="30" y="130" width="150" height="10" rx="5" fill="#94a3b8" opacity="0.15"/>
  <rect x="30" y="160" width="130" height="10" rx="5" fill="#94a3b8" opacity="0.15"/>
  <rect x="30" y="190" width="145" height="10" rx="5" fill="#94a3b8" opacity="0.15"/>
  <rect x="260" y="30" width="250" height="14" rx="7" fill="#f8fafc" opacity="0.12"/>
  <rect x="260" y="80" width="300" height="140" rx="12" fill="#7c3aed" opacity="0.12" stroke="#7c3aed" stroke-opacity="0.2" stroke-width="1"/>
  <rect x="590" y="80" width="300" height="140" rx="12" fill="#06b6d4" opacity="0.1" stroke="#06b6d4" stroke-opacity="0.2" stroke-width="1"/>
  <rect x="920" y="80" width="300" height="140" rx="12" fill="#f59e0b" opacity="0.1" stroke="#f59e0b" stroke-opacity="0.2" stroke-width="1"/>
  <rect x="260" y="260" width="960" height="300" rx="12" fill="#1a1a28" stroke="#2a2a3a" stroke-width="1"/>
  <text x="640" y="420" text-anchor="middle" font-family="sans-serif" font-size="24" fill="#94a3b8" opacity="0.5">Replace with actual screenshot</text>
  <text x="640" y="460" text-anchor="middle" font-family="monospace" font-size="14" fill="#7c3aed" opacity="0.4">assets/epas-screenshot.png</text>
</svg>
