<svg xmlns="http://www.w3.org/2000/svg" xmlns:xlink="http://www.w3.org/1999/xlink" width="500" zoomAndPan="magnify" viewBox="0 0 375 374.999991" height="500" preserveAspectRatio="xMidYMid meet" version="1.2"><defs><clipPath id="487a70a81b"><path d="M 48.316406 47.460938 L 326.683594 47.460938 L 326.683594 328 L 48.316406 328 Z M 48.316406 47.460938 "/></clipPath><clipPath id="9d47b0c01d"><path d="M 65.566406 47.460938 L 309.433594 47.460938 C 314.011719 47.460938 318.398438 49.277344 321.632812 52.511719 C 324.867188 55.75 326.683594 60.136719 326.683594 64.710938 L 326.683594 310.289062 C 326.683594 314.863281 324.867188 319.25 321.632812 322.488281 C 318.398438 325.722656 314.011719 327.539062 309.433594 327.539062 L 65.566406 327.539062 C 60.988281 327.539062 56.601562 325.722656 53.367188 322.488281 C 50.132812 319.25 48.316406 314.863281 48.316406 310.289062 L 48.316406 64.710938 C 48.316406 60.136719 50.132812 55.75 53.367188 52.511719 C 56.601562 49.277344 60.988281 47.460938 65.566406 47.460938 Z M 65.566406 47.460938 "/></clipPath><clipPath id="cbd21f46b0"><path d="M 0.316406 0.460938 L 278.683594 0.460938 L 278.683594 280.601562 L 0.316406 280.601562 Z M 0.316406 0.460938 "/></clipPath><clipPath id="d4a5580ced"><path d="M 17.566406 0.460938 L 261.433594 0.460938 C 266.011719 0.460938 270.398438 2.277344 273.632812 5.511719 C 276.867188 8.75 278.683594 13.136719 278.683594 17.710938 L 278.683594 263.289062 C 278.683594 267.863281 276.867188 272.25 273.632812 275.488281 C 270.398438 278.722656 266.011719 280.539062 261.433594 280.539062 L 17.566406 280.539062 C 12.988281 280.539062 8.601562 278.722656 5.367188 275.488281 C 2.132812 272.25 0.316406 267.863281 0.316406 263.289062 L 0.316406 17.710938 C 0.316406 13.136719 2.132812 8.75 5.367188 5.511719 C 8.601562 2.277344 12.988281 0.460938 17.566406 0.460938 Z M 17.566406 0.460938 "/></clipPath><clipPath id="a6b3b12f67"><rect x="0" width="279" y="0" height="281"/></clipPath><clipPath id="596905389f"><path d="M 48.320312 47.460938 L 326.566406 47.460938 L 326.566406 327.210938 L 48.320312 327.210938 Z M 48.320312 47.460938 "/></clipPath><clipPath id="98f85b5578"><path d="M 65.566406 47.460938 L 309.429688 47.460938 C 314.003906 47.460938 318.390625 49.277344 321.625 52.511719 C 324.859375 55.75 326.679688 60.136719 326.679688 64.710938 L 326.679688 310.277344 C 326.679688 314.851562 324.859375 319.242188 321.625 322.476562 C 318.390625 325.710938 314.003906 327.527344 309.429688 327.527344 L 65.566406 327.527344 C 60.992188 327.527344 56.605469 325.710938 53.371094 322.476562 C 50.136719 319.242188 48.320312 314.851562 48.320312 310.277344 L 48.320312 64.710938 C 48.320312 60.136719 50.136719 55.75 53.371094 52.511719 C 56.605469 49.277344 60.992188 47.460938 65.566406 47.460938 Z M 65.566406 47.460938 "/></clipPath><clipPath id="48ba0bfa34"><path d="M 48.316406 183.503906 L 105.78125 183.503906 L 105.78125 193.019531 L 48.316406 193.019531 Z M 48.316406 183.503906 "/></clipPath><clipPath id="4592b25a7d"><path d="M 0.316406 0.503906 L 57.78125 0.503906 L 57.78125 10.019531 L 0.316406 10.019531 Z M 0.316406 0.503906 "/></clipPath><clipPath id="fcf63742f1"><rect x="0" width="58" y="0" height="11"/></clipPath><clipPath id="df657ea524"><path d="M 98 158 L 131 158 L 131 194 L 98 194 Z M 98 158 "/></clipPath><clipPath id="08cc48b6a3"><path d="M 98.554688 186.839844 L 123.042969 158.117188 L 130.285156 164.289062 L 105.796875 193.011719 Z M 98.554688 186.839844 "/></clipPath><clipPath id="41886bf599"><path d="M 0.398438 0 L 32.320312 0 L 32.320312 35.199219 L 0.398438 35.199219 Z M 0.398438 0 "/></clipPath><clipPath id="af403050c3"><path d="M 0.554688 28.839844 L 25.042969 0.117188 L 32.285156 6.289062 L 7.796875 35.011719 Z M 0.554688 28.839844 "/></clipPath><clipPath id="5151b6e400"><rect x="0" width="33" y="0" height="36"/></clipPath><clipPath id="2ad843fb09"><path d="M 120.769531 126.027344 L 130.28125 126.027344 L 130.28125 164.085938 L 120.769531 164.085938 Z M 120.769531 126.027344 "/></clipPath><clipPath id="49d983fa4c"><path d="M 0.769531 0.0273438 L 10.28125 0.0273438 L 10.28125 38.085938 L 0.769531 38.085938 Z M 0.769531 0.0273438 "/></clipPath><clipPath id="c24cc4eae2"><rect x="0" width="11" y="0" height="39"/></clipPath><clipPath id="da9c1ef73e"><path d="M 113.019531 103.691406 L 138.027344 103.691406 L 138.027344 128.699219 L 113.019531 128.699219 Z M 113.019531 103.691406 "/></clipPath><clipPath id="41984b2d11"><path d="M 125.523438 103.691406 C 118.617188 103.691406 113.019531 109.289062 113.019531 116.195312 C 113.019531 123.101562 118.617188 128.699219 125.523438 128.699219 C 132.429688 128.699219 138.027344 123.101562 138.027344 116.195312 C 138.027344 109.289062 132.429688 103.691406 125.523438 103.691406 Z M 125.523438 103.691406 "/></clipPath><clipPath id="6e6f3379b8"><path d="M 0.0195312 0.691406 L 25.027344 0.691406 L 25.027344 25.699219 L 0.0195312 25.699219 Z M 0.0195312 0.691406 "/></clipPath><clipPath id="1e27f173e6"><path d="M 12.523438 0.691406 C 5.617188 0.691406 0.0195312 6.289062 0.0195312 13.195312 C 0.0195312 20.101562 5.617188 25.699219 12.523438 25.699219 C 19.429688 25.699219 25.027344 20.101562 25.027344 13.195312 C 25.027344 6.289062 19.429688 0.691406 12.523438 0.691406 Z M 12.523438 0.691406 "/></clipPath><clipPath id="12dba78463"><rect x="0" width="26" y="0" height="26"/></clipPath><clipPath id="c91b0b787b"><path d="M 113.019531 103.691406 L 137.769531 103.691406 L 137.769531 128.441406 L 113.019531 128.441406 Z M 113.019531 103.691406 "/></clipPath><clipPath id="603bb592ee"><path d="M 125.523438 103.691406 C 118.617188 103.691406 113.019531 109.289062 113.019531 116.195312 C 113.019531 123.101562 118.617188 128.699219 125.523438 128.699219 C 132.429688 128.699219 138.027344 123.101562 138.027344 116.195312 C 138.027344 109.289062 132.429688 103.691406 125.523438 103.691406 Z M 125.523438 103.691406 "/></clipPath><clipPath id="906b863c72"><path d="M 54.039062 224.832031 L 140.050781 224.832031 L 140.050781 234.347656 L 54.039062 234.347656 Z M 54.039062 224.832031 "/></clipPath><clipPath id="e6869e3ef8"><path d="M 0.0390625 0.832031 L 86.050781 0.832031 L 86.050781 10.347656 L 0.0390625 10.347656 Z M 0.0390625 0.832031 "/></clipPath><clipPath id="9a7c5363a6"><rect x="0" width="87" y="0" height="11"/></clipPath><clipPath id="c6a484fda6"><path d="M 132 166 L 194 166 L 194 235 L 132 235 Z M 132 166 "/></clipPath><clipPath id="6f3d09571c"><path d="M 132.949219 228.167969 L 185.789062 166.179688 L 193.03125 172.351562 L 140.1875 234.339844 Z M 132.949219 228.167969 "/></clipPath><clipPath id="a1fe8b5419"><path d="M 0.71875 0.078125 L 61.199219 0.078125 L 61.199219 68.480469 L 0.71875 68.480469 Z M 0.71875 0.078125 "/></clipPath><clipPath id="96d664f2be"><path d="M 0.949219 62.167969 L 53.789062 0.179688 L 61.03125 6.351562 L 8.1875 68.339844 Z M 0.949219 62.167969 "/></clipPath><clipPath id="e62f79896a"><rect x="0" width="62" y="0" height="69"/></clipPath><clipPath id="dfa2770ea0"><path d="M 182.546875 151.371094 L 206.746094 151.371094 L 206.746094 175.570312 L 182.546875 175.570312 Z M 182.546875 151.371094 "/></clipPath><clipPath id="e5ab4d0a71"><path d="M 194.644531 151.371094 C 187.960938 151.371094 182.546875 156.785156 182.546875 163.46875 C 182.546875 170.152344 187.960938 175.570312 194.644531 175.570312 C 201.328125 175.570312 206.746094 170.152344 206.746094 163.46875 C 206.746094 156.785156 201.328125 151.371094 194.644531 151.371094 Z M 194.644531 151.371094 "/></clipPath><clipPath id="aee848f39d"><path d="M 0.546875 0.371094 L 24.746094 0.371094 L 24.746094 24.570312 L 0.546875 24.570312 Z M 0.546875 0.371094 "/></clipPath><clipPath id="14a42c0e0c"><path d="M 12.644531 0.371094 C 5.960938 0.371094 0.546875 5.785156 0.546875 12.46875 C 0.546875 19.152344 5.960938 24.570312 12.644531 24.570312 C 19.328125 24.570312 24.746094 19.152344 24.746094 12.46875 C 24.746094 5.785156 19.328125 0.371094 12.644531 0.371094 Z M 12.644531 0.371094 "/></clipPath><clipPath id="586a96842e"><rect x="0" width="25" y="0" height="25"/></clipPath><clipPath id="fbbbd3c29d"><path d="M 182.546875 151.371094 L 206.546875 151.371094 L 206.546875 175.371094 L 182.546875 175.371094 Z M 182.546875 151.371094 "/></clipPath><clipPath id="fc3b2cfdd0"><path d="M 194.644531 151.371094 C 187.960938 151.371094 182.546875 156.785156 182.546875 163.46875 C 182.546875 170.152344 187.960938 175.570312 194.644531 175.570312 C 201.328125 175.570312 206.746094 170.152344 206.746094 163.46875 C 206.746094 156.785156 201.328125 151.371094 194.644531 151.371094 Z M 194.644531 151.371094 "/></clipPath><clipPath id="2eb9c84fb3"><path d="M 49.996094 272.402344 L 105.78125 272.402344 L 105.78125 281.917969 L 49.996094 281.917969 Z M 49.996094 272.402344 "/></clipPath><clipPath id="b65c9378ef"><path d="M 0.996094 0.402344 L 56.78125 0.402344 L 56.78125 9.917969 L 0.996094 9.917969 Z M 0.996094 0.402344 "/></clipPath><clipPath id="3b44459097"><rect x="0" width="57" y="0" height="10"/></clipPath><clipPath id="b444b12bcd"><path d="M 105.03125 265.847656 L 129.234375 265.847656 L 129.234375 290.046875 L 105.03125 290.046875 Z M 105.03125 265.847656 "/></clipPath><clipPath id="53f6d4be04"><path d="M 117.132812 265.847656 C 110.449219 265.847656 105.03125 271.261719 105.03125 277.945312 C 105.03125 284.628906 110.449219 290.046875 117.132812 290.046875 C 123.816406 290.046875 129.234375 284.628906 129.234375 277.945312 C 129.234375 271.261719 123.816406 265.847656 117.132812 265.847656 Z M 117.132812 265.847656 "/></clipPath><clipPath id="4287849bed"><path d="M 0.03125 0.847656 L 24.234375 0.847656 L 24.234375 25.046875 L 0.03125 25.046875 Z M 0.03125 0.847656 "/></clipPath><clipPath id="3db9495ca5"><path d="M 12.132812 0.847656 C 5.449219 0.847656 0.03125 6.261719 0.03125 12.945312 C 0.03125 19.628906 5.449219 25.046875 12.132812 25.046875 C 18.816406 25.046875 24.234375 19.628906 24.234375 12.945312 C 24.234375 6.261719 18.816406 0.847656 12.132812 0.847656 Z M 12.132812 0.847656 "/></clipPath><clipPath id="5c41e48323"><rect x="0" width="25" y="0" height="26"/></clipPath><clipPath id="4fd7d52905"><path d="M 105.03125 265.847656 L 129.03125 265.847656 L 129.03125 289.847656 L 105.03125 289.847656 Z M 105.03125 265.847656 "/></clipPath><clipPath id="ced33c05d6"><path d="M 117.132812 265.847656 C 110.449219 265.847656 105.03125 271.261719 105.03125 277.945312 C 105.03125 284.628906 110.449219 290.046875 117.132812 290.046875 C 123.8125 290.046875 129.230469 284.628906 129.230469 277.945312 C 129.230469 271.261719 123.8125 265.847656 117.132812 265.847656 Z M 117.132812 265.847656 "/></clipPath><clipPath id="f5e7d35dc2"><path d="M 120 141 L 338 141 L 338 370 L 120 370 Z M 120 141 "/></clipPath><clipPath id="ae315719c6"><path d="M 94.179688 144.890625 L 340.335938 119.164062 L 364.738281 352.644531 L 118.578125 378.367188 Z M 94.179688 144.890625 "/></clipPath><clipPath id="910c3e57ef"><path d="M 94.179688 144.890625 L 340.335938 119.164062 L 364.738281 352.644531 L 118.578125 378.367188 Z M 94.179688 144.890625 "/></clipPath><clipPath id="5b1a34e787"><path d="M 236 135 L 293 135 L 293 188 L 236 188 Z M 236 135 "/></clipPath><clipPath id="cdcc8cbeea"><path d="M 94.179688 144.890625 L 340.335938 119.164062 L 364.738281 352.644531 L 118.578125 378.367188 Z M 94.179688 144.890625 "/></clipPath><clipPath id="3c8cb1b603"><path d="M 94.179688 144.890625 L 340.335938 119.164062 L 364.738281 352.644531 L 118.578125 378.367188 Z M 94.179688 144.890625 "/></clipPath><clipPath id="1a8fe7a088"><path d="M 183 228 L 243 228 L 243 299 L 183 299 Z M 183 228 "/></clipPath><clipPath id="2669bdcb48"><path d="M 94.179688 144.890625 L 340.335938 119.164062 L 364.738281 352.644531 L 118.578125 378.367188 Z M 94.179688 144.890625 "/></clipPath><clipPath id="5481fcf21a"><path d="M 94.179688 144.890625 L 340.335938 119.164062 L 364.738281 352.644531 L 118.578125 378.367188 Z M 94.179688 144.890625 "/></clipPath><clipPath id="c267dfec65"><path d="M 137 317 L 173 317 L 173 353 L 137 353 Z M 137 317 "/></clipPath><clipPath id="9ec5568d92"><path d="M 94.179688 144.890625 L 340.335938 119.164062 L 364.738281 352.644531 L 118.578125 378.367188 Z M 94.179688 144.890625 "/></clipPath><clipPath id="83831ee718"><path d="M 94.179688 144.890625 L 340.335938 119.164062 L 364.738281 352.644531 L 118.578125 378.367188 Z M 94.179688 144.890625 "/></clipPath><clipPath id="5997271164"><path d="M 115 131 L 342 131 L 342 375 L 115 375 Z M 115 131 "/></clipPath><clipPath id="6800e0f614"><path d="M 94.179688 144.890625 L 340.335938 119.164062 L 364.738281 352.644531 L 118.578125 378.367188 Z M 94.179688 144.890625 "/></clipPath><clipPath id="537ead49d1"><path d="M 94.179688 144.890625 L 340.335938 119.164062 L 364.738281 352.644531 L 118.578125 378.367188 Z M 94.179688 144.890625 "/></clipPath><clipPath id="e03696856d"><path d="M 241 195 L 294 195 L 294 218 L 241 218 Z M 241 195 "/></clipPath><clipPath id="e6533d8d7c"><path d="M 94.179688 144.890625 L 340.335938 119.164062 L 364.738281 352.644531 L 118.578125 378.367188 Z M 94.179688 144.890625 "/></clipPath><clipPath id="5b846fded3"><path d="M 94.179688 144.890625 L 340.335938 119.164062 L 364.738281 352.644531 L 118.578125 378.367188 Z M 94.179688 144.890625 "/></clipPath></defs><g id="1b515b07c1"><rect x="0" width="375" y="0" height="374.999991" style="fill:#ffffff;fill-opacity:1;stroke:none;"/><rect x="0" width="375" y="0" height="374.999991" style="fill:#ffffff;fill-opacity:1;stroke:none;"/><g clip-rule="nonzero" clip-path="url(#487a70a81b)"><g clip-rule="nonzero" clip-path="url(#9d47b0c01d)"><g transform="matrix(1,0,0,1,48,47)"><g clip-path="url(#a6b3b12f67)"><g clip-rule="nonzero" clip-path="url(#cbd21f46b0)"><g clip-rule="nonzero" clip-path="url(#d4a5580ced)"><path style=" stroke:none;fill-rule:nonzero;fill:#245d8a;fill-opacity:1;" d="M 0.316406 0.460938 L 278.683594 0.460938 L 278.683594 281.007812 L 0.316406 281.007812 Z M 0.316406 0.460938 "/></g></g></g></g></g></g><g clip-rule="nonzero" clip-path="url(#596905389f)"><g clip-rule="nonzero" clip-path="url(#98f85b5578)"><path style="fill:none;stroke-width:12;stroke-linecap:butt;stroke-linejoin:miter;stroke:#000000;stroke-opacity:1;stroke-miterlimit:4;" d="M 22.996784 -0.000173045 L 348.147847 -0.000173045 C 354.246805 -0.000173045 360.095764 2.421702 364.408264 6.734202 C 368.720765 11.051911 371.147848 16.90087 371.147848 22.999828 L 371.147848 350.421725 C 371.147848 356.520684 368.720765 362.374851 364.408264 366.687351 C 360.095764 370.999851 354.246805 373.421726 348.147847 373.421726 L 22.996784 373.421726 C 16.897825 373.421726 11.048866 370.999851 6.736366 366.687351 C 2.423866 362.374851 0.00199036 356.520684 0.00199036 350.421725 L 0.00199036 22.999828 C 0.00199036 16.90087 2.423866 11.051911 6.736366 6.734202 C 11.048866 2.421702 16.897825 -0.000173045 22.996784 -0.000173045 Z M 22.996784 -0.000173045 " transform="matrix(0.75,0,0,0.75,48.31882,47.461067)"/></g></g><g clip-rule="nonzero" clip-path="url(#48ba0bfa34)"><g transform="matrix(1,0,0,1,48,183)"><g clip-path="url(#fcf63742f1)"><g clip-rule="nonzero" clip-path="url(#4592b25a7d)"><path style=" stroke:none;fill-rule:nonzero;fill:#000000;fill-opacity:1;" d="M 0.316406 0.503906 L 57.773438 0.503906 L 57.773438 10.019531 L 0.316406 10.019531 Z M 0.316406 0.503906 "/></g></g></g></g><g clip-rule="nonzero" clip-path="url(#df657ea524)"><g clip-rule="nonzero" clip-path="url(#08cc48b6a3)"><g transform="matrix(1,0,0,1,98,158)"><g clip-path="url(#5151b6e400)"><g clip-rule="nonzero" clip-path="url(#41886bf599)"><g clip-rule="nonzero" clip-path="url(#af403050c3)"><path style=" stroke:none;fill-rule:nonzero;fill:#000000;fill-opacity:1;" d="M 0.554688 28.839844 L 25.054688 0.105469 L 32.292969 6.277344 L 7.796875 35.011719 Z M 0.554688 28.839844 "/></g></g></g></g></g></g><g clip-rule="nonzero" clip-path="url(#2ad843fb09)"><g transform="matrix(1,0,0,1,120,126)"><g clip-path="url(#c24cc4eae2)"><g clip-rule="nonzero" clip-path="url(#49d983fa4c)"><path style=" stroke:none;fill-rule:nonzero;fill:#000000;fill-opacity:1;" d="M 0.769531 38.085938 L 0.769531 0.0273438 L 10.28125 0.0273438 L 10.28125 38.085938 Z M 0.769531 38.085938 "/></g></g></g></g><g clip-rule="nonzero" clip-path="url(#da9c1ef73e)"><g clip-rule="nonzero" clip-path="url(#41984b2d11)"><g transform="matrix(1,0,0,1,113,103)"><g clip-path="url(#12dba78463)"><g clip-rule="nonzero" clip-path="url(#6e6f3379b8)"><g clip-rule="nonzero" clip-path="url(#1e27f173e6)"><path style=" stroke:none;fill-rule:nonzero;fill:#fffbf5;fill-opacity:1;" d="M 0.0195312 0.691406 L 25.027344 0.691406 L 25.027344 25.699219 L 0.0195312 25.699219 Z M 0.0195312 0.691406 "/></g></g></g></g></g></g><g clip-rule="nonzero" clip-path="url(#c91b0b787b)"><g clip-rule="nonzero" clip-path="url(#603bb592ee)"><path style="fill:none;stroke-width:16;stroke-linecap:butt;stroke-linejoin:miter;stroke:#000000;stroke-opacity:1;stroke-miterlimit:4;" d="M 16.673232 0.00184781 C 7.464898 0.00184781 0.00135543 7.46539 0.00135543 16.673724 C 0.00135543 25.882058 7.464898 33.3456 16.673232 33.3456 C 25.881565 33.3456 33.345108 25.882058 33.345108 16.673724 C 33.345108 7.46539 25.881565 0.00184781 16.673232 0.00184781 Z M 16.673232 0.00184781 " transform="matrix(0.75,0,0,0.75,113.018515,103.69002)"/></g></g><g clip-rule="nonzero" clip-path="url(#906b863c72)"><g transform="matrix(1,0,0,1,54,224)"><g clip-path="url(#9a7c5363a6)"><g clip-rule="nonzero" clip-path="url(#e6869e3ef8)"><path style=" stroke:none;fill-rule:nonzero;fill:#000000;fill-opacity:1;" d="M 0.0390625 0.832031 L 86.042969 0.832031 L 86.042969 10.347656 L 0.0390625 10.347656 Z M 0.0390625 0.832031 "/></g></g></g></g><g clip-rule="nonzero" clip-path="url(#c6a484fda6)"><g clip-rule="nonzero" clip-path="url(#6f3d09571c)"><g transform="matrix(1,0,0,1,132,166)"><g clip-path="url(#e62f79896a)"><g clip-rule="nonzero" clip-path="url(#a1fe8b5419)"><g clip-rule="nonzero" clip-path="url(#96d664f2be)"><path style=" stroke:none;fill-rule:nonzero;fill:#000000;fill-opacity:1;" d="M 0.949219 62.167969 L 53.796875 0.171875 L 61.039062 6.34375 L 8.1875 68.339844 Z M 0.949219 62.167969 "/></g></g></g></g></g></g><g clip-rule="nonzero" clip-path="url(#dfa2770ea0)"><g clip-rule="nonzero" clip-path="url(#e5ab4d0a71)"><g transform="matrix(1,0,0,1,182,151)"><g clip-path="url(#586a96842e)"><g clip-rule="nonzero" clip-path="url(#aee848f39d)"><g clip-rule="nonzero" clip-path="url(#14a42c0e0c)"><path style=" stroke:none;fill-rule:nonzero;fill:#fffbf5;fill-opacity:1;" d="M 0.546875 0.371094 L 24.746094 0.371094 L 24.746094 24.570312 L 0.546875 24.570312 Z M 0.546875 0.371094 "/></g></g></g></g></g></g><g clip-rule="nonzero" clip-path="url(#fbbbd3c29d)"><g clip-rule="nonzero" clip-path="url(#fc3b2cfdd0)"><path style="fill:none;stroke-width:16;stroke-linecap:butt;stroke-linejoin:miter;stroke:#000000;stroke-opacity:1;stroke-miterlimit:4;" d="M 16.132459 0.00206465 C 7.221 0.00206465 0.00224972 7.220815 0.00224972 16.132274 C 0.00224972 25.043733 7.221 32.267692 16.132459 32.267692 C 25.043918 32.267692 32.267877 25.043733 32.267877 16.132274 C 32.267877 7.220815 25.043918 0.00206465 16.132459 0.00206465 Z M 16.132459 0.00206465 " transform="matrix(0.75,0,0,0.75,182.545188,151.369545)"/></g></g><g clip-rule="nonzero" clip-path="url(#2eb9c84fb3)"><g transform="matrix(1,0,0,1,49,272)"><g clip-path="url(#3b44459097)"><g clip-rule="nonzero" clip-path="url(#b65c9378ef)"><path style=" stroke:none;fill-rule:nonzero;fill:#000000;fill-opacity:1;" d="M 0.996094 0.402344 L 56.78125 0.402344 L 56.78125 9.917969 L 0.996094 9.917969 Z M 0.996094 0.402344 "/></g></g></g></g><g clip-rule="nonzero" clip-path="url(#b444b12bcd)"><g clip-rule="nonzero" clip-path="url(#53f6d4be04)"><g transform="matrix(1,0,0,1,105,265)"><g clip-path="url(#5c41e48323)"><g clip-rule="nonzero" clip-path="url(#4287849bed)"><g clip-rule="nonzero" clip-path="url(#3db9495ca5)"><path style=" stroke:none;fill-rule:nonzero;fill:#fffbf5;fill-opacity:1;" d="M 0.03125 0.847656 L 24.234375 0.847656 L 24.234375 25.046875 L 0.03125 25.046875 Z M 0.03125 0.847656 "/></g></g></g></g></g></g><g clip-rule="nonzero" clip-path="url(#4fd7d52905)"><g clip-rule="nonzero" clip-path="url(#ced33c05d6)"><path style="fill:none;stroke-width:16;stroke-linecap:butt;stroke-linejoin:miter;stroke:#000000;stroke-opacity:1;stroke-miterlimit:4;" d="M 16.134089 0.00255054 C 7.22263 0.00255054 -0.00132854 7.221301 -0.00132854 16.13276 C -0.00132854 25.044219 7.22263 32.268178 16.134089 32.268178 C 25.04034 32.268178 32.264299 25.044219 32.264299 16.13276 C 32.264299 7.221301 25.04034 0.00255054 16.134089 0.00255054 Z M 16.134089 0.00255054 " transform="matrix(0.75,0,0,0.75,105.032246,265.845743)"/></g></g><g clip-rule="nonzero" clip-path="url(#f5e7d35dc2)"><g clip-rule="nonzero" clip-path="url(#ae315719c6)"><g clip-rule="nonzero" clip-path="url(#910c3e57ef)"><path style=" stroke:none;fill-rule:nonzero;fill:#f6ad06;fill-opacity:1;" d="M 325.464844 141.851562 L 300.347656 196.917969 L 216.550781 172.714844 C 216.285156 175.78125 216.253906 178.851562 216.460938 181.925781 C 216.667969 185 217.105469 188.039062 217.777344 191.042969 C 218.449219 194.050781 219.347656 196.984375 220.46875 199.855469 C 221.589844 202.722656 222.925781 205.488281 224.472656 208.152344 L 149.167969 301.03125 C 148.082031 301.210938 147.003906 301.445312 145.941406 301.730469 C 144.875 302.019531 143.828125 302.355469 142.792969 302.738281 C 141.761719 303.125 140.75 303.558594 139.757812 304.042969 C 138.765625 304.527344 137.800781 305.054688 136.859375 305.628906 C 135.917969 306.207031 135.007812 306.824219 134.125 307.484375 C 133.242188 308.148438 132.394531 308.851562 131.582031 309.59375 C 130.765625 310.339844 129.988281 311.121094 129.25 311.9375 C 128.511719 312.753906 127.8125 313.605469 127.152344 314.492188 C 126.496094 315.375 125.878906 316.289062 125.308594 317.234375 C 124.738281 318.175781 124.214844 319.144531 123.734375 320.140625 C 123.257812 321.132812 122.828125 322.148438 122.445312 323.179688 C 122.066406 324.214844 121.734375 325.265625 121.453125 326.332031 C 121.171875 327.398438 120.941406 328.476562 120.765625 329.566406 C 120.585938 330.652344 120.460938 331.746094 120.390625 332.847656 C 120.316406 333.949219 120.296875 335.050781 120.328125 336.152344 C 120.359375 337.253906 120.445312 338.351562 120.582031 339.445312 C 120.71875 340.539062 120.910156 341.625 121.152344 342.703125 C 121.390625 343.777344 121.683594 344.839844 122.027344 345.886719 C 122.371094 346.9375 122.761719 347.964844 123.203125 348.976562 C 123.644531 349.988281 124.132812 350.972656 124.667969 351.9375 C 125.203125 352.902344 125.785156 353.839844 126.410156 354.746094 C 127.035156 355.65625 127.703125 356.53125 128.410156 357.375 C 129.121094 358.21875 129.867188 359.03125 130.652344 359.800781 C 131.441406 360.574219 132.261719 361.308594 133.117188 362.003906 C 133.976562 362.699219 134.863281 363.351562 135.78125 363.960938 C 136.699219 364.570312 137.648438 365.132812 138.621094 365.652344 C 139.59375 366.171875 140.585938 366.644531 141.605469 367.066406 C 142.625 367.492188 143.660156 367.867188 144.714844 368.191406 C 145.765625 368.515625 146.835938 368.789062 147.914062 369.011719 C 148.996094 369.234375 150.082031 369.40625 151.179688 369.523438 C 152.273438 369.640625 153.375 369.707031 154.476562 369.722656 C 155.578125 369.734375 156.679688 369.695312 157.78125 369.605469 C 158.878906 369.511719 159.96875 369.367188 161.054688 369.171875 C 162.140625 368.976562 163.214844 368.726562 164.277344 368.429688 C 165.335938 368.128906 166.382812 367.78125 167.410156 367.382812 C 168.4375 366.984375 169.445312 366.535156 170.429688 366.042969 C 171.414062 365.546875 172.375 365.003906 173.308594 364.417969 C 174.242188 363.832031 175.144531 363.203125 176.019531 362.527344 C 176.890625 361.855469 177.730469 361.140625 178.535156 360.386719 C 179.339844 359.632812 180.109375 358.84375 180.839844 358.015625 C 181.566406 357.191406 182.253906 356.328125 182.902344 355.4375 C 183.550781 354.542969 184.152344 353.621094 184.710938 352.671875 C 185.273438 351.722656 185.785156 350.746094 186.25 349.746094 C 186.714844 348.746094 187.132812 347.726562 187.5 346.6875 C 187.867188 345.648438 188.1875 344.59375 188.453125 343.523438 C 188.722656 342.453125 188.9375 341.375 189.101562 340.285156 C 189.265625 339.195312 189.378906 338.097656 189.4375 336.996094 C 189.496094 335.894531 189.503906 334.792969 189.457031 333.691406 L 267.378906 237.582031 C 268.851562 237.820312 270.332031 238 271.816406 238.125 C 273.304688 238.25 274.792969 238.324219 276.285156 238.339844 C 277.777344 238.355469 279.265625 238.316406 280.753906 238.21875 C 282.246094 238.125 283.726562 237.976562 285.207031 237.773438 C 286.683594 237.566406 288.152344 237.308594 289.609375 236.996094 C 291.070312 236.683594 292.515625 236.316406 293.945312 235.894531 C 295.378906 235.476562 296.792969 235.003906 298.1875 234.480469 C 299.585938 233.953125 300.960938 233.378906 302.3125 232.75 C 303.667969 232.125 304.996094 231.449219 306.300781 230.722656 C 307.605469 230 308.878906 229.226562 310.125 228.40625 C 311.371094 227.589844 312.585938 226.722656 313.769531 225.816406 C 314.953125 224.90625 316.101562 223.953125 317.214844 222.960938 C 318.324219 221.964844 319.398438 220.929688 320.433594 219.859375 C 321.472656 218.785156 322.464844 217.671875 323.417969 216.527344 C 324.371094 215.378906 325.28125 214.199219 326.148438 212.984375 C 327.015625 211.769531 327.835938 210.523438 328.609375 209.246094 C 329.382812 207.972656 330.109375 206.667969 330.785156 205.339844 C 331.464844 204.011719 332.089844 202.660156 332.667969 201.285156 C 333.246094 199.90625 333.769531 198.511719 334.246094 197.097656 C 334.71875 195.683594 335.140625 194.253906 335.507812 192.808594 C 335.875 191.363281 336.191406 189.90625 336.453125 188.4375 C 336.710938 186.96875 336.917969 185.492188 337.070312 184.007812 C 337.21875 182.523438 337.316406 181.035156 337.355469 179.542969 C 337.398438 178.050781 337.382812 176.5625 337.3125 175.070312 C 337.242188 173.582031 337.121094 172.09375 336.941406 170.613281 C 336.761719 169.132812 336.527344 167.660156 336.238281 166.195312 C 335.949219 164.734375 335.609375 163.28125 335.210938 161.84375 C 334.816406 160.40625 334.367188 158.984375 333.867188 157.578125 C 333.363281 156.171875 332.8125 154.789062 332.210938 153.421875 C 331.605469 152.058594 330.953125 150.71875 330.25 149.402344 C 329.546875 148.085938 328.796875 146.800781 327.996094 145.539062 C 327.199219 144.277344 326.355469 143.050781 325.464844 141.851562 Z M 156.292969 347.984375 C 155.445312 348.074219 154.597656 348.078125 153.75 348 C 152.902344 347.921875 152.070312 347.761719 151.253906 347.519531 C 150.4375 347.277344 149.652344 346.957031 148.898438 346.558594 C 148.144531 346.164062 147.4375 345.695312 146.773438 345.160156 C 146.113281 344.621094 145.511719 344.027344 144.964844 343.371094 C 144.421875 342.714844 143.945312 342.015625 143.539062 341.265625 C 143.132812 340.515625 142.804688 339.734375 142.554688 338.921875 C 142.300781 338.109375 142.128906 337.277344 142.042969 336.429688 C 141.953125 335.582031 141.949219 334.734375 142.027344 333.886719 C 142.105469 333.039062 142.265625 332.207031 142.507812 331.390625 C 142.75 330.574219 143.070312 329.789062 143.46875 329.035156 C 143.863281 328.28125 144.332031 327.574219 144.867188 326.910156 C 145.40625 326.25 146 325.644531 146.65625 325.101562 C 147.3125 324.558594 148.011719 324.082031 148.761719 323.675781 C 149.511719 323.269531 150.292969 322.941406 151.105469 322.6875 C 151.917969 322.4375 152.75 322.265625 153.597656 322.175781 C 154.445312 322.089844 155.292969 322.085938 156.140625 322.164062 C 156.988281 322.242188 157.820312 322.402344 158.636719 322.644531 C 159.453125 322.886719 160.238281 323.207031 160.992188 323.601562 C 161.746094 324 162.453125 324.46875 163.117188 325.003906 C 163.777344 325.539062 164.382812 326.136719 164.925781 326.792969 C 165.46875 327.445312 165.945312 328.148438 166.351562 328.898438 C 166.757812 329.644531 167.085938 330.425781 167.339844 331.242188 C 167.589844 332.054688 167.761719 332.886719 167.851562 333.734375 C 167.9375 334.582031 167.945312 335.429688 167.867188 336.277344 C 167.789062 337.125 167.628906 337.957031 167.386719 338.777344 C 167.144531 339.59375 166.828125 340.378906 166.429688 341.132812 C 166.03125 341.886719 165.566406 342.59375 165.03125 343.257812 C 164.492188 343.917969 163.894531 344.523438 163.242188 345.066406 C 162.585938 345.609375 161.882812 346.085938 161.132812 346.492188 C 160.382812 346.898438 159.601562 347.226562 158.789062 347.476562 C 157.972656 347.726562 157.140625 347.898438 156.292969 347.984375 Z M 156.292969 347.984375 "/></g></g></g><g clip-rule="nonzero" clip-path="url(#5b1a34e787)"><g clip-rule="nonzero" clip-path="url(#cdcc8cbeea)"><g clip-rule="nonzero" clip-path="url(#3c8cb1b603)"><path style=" stroke:none;fill-rule:nonzero;fill:#f6ad06;fill-opacity:1;" d="M 246.621094 153.335938 C 243.691406 156.941406 241.34375 160.890625 239.578125 165.1875 C 237.816406 169.484375 236.707031 173.941406 236.253906 178.566406 L 268.683594 187.925781 L 292.121094 136.496094 C 290.03125 136.117188 287.925781 135.875 285.800781 135.773438 C 283.679688 135.675781 281.5625 135.714844 279.445312 135.902344 C 277.328125 136.085938 275.234375 136.410156 273.160156 136.875 C 271.085938 137.339844 269.054688 137.941406 267.0625 138.675781 C 265.070312 139.414062 263.132812 140.28125 261.257812 141.277344 C 259.382812 142.273438 257.582031 143.394531 255.855469 144.628906 C 254.125 145.867188 252.492188 147.214844 250.945312 148.675781 C 249.398438 150.132812 247.957031 151.6875 246.621094 153.335938 Z M 246.621094 153.335938 "/></g></g></g><g clip-rule="nonzero" clip-path="url(#1a8fe7a088)"><g clip-rule="nonzero" clip-path="url(#2669bdcb48)"><g clip-rule="nonzero" clip-path="url(#5481fcf21a)"><path style=" stroke:none;fill-rule:nonzero;fill:#000000;fill-opacity:1;" d="M 183.40625 293.109375 L 235.996094 228.238281 L 242.714844 233.6875 L 190.125 298.554688 Z M 183.40625 293.109375 "/></g></g></g><g clip-rule="nonzero" clip-path="url(#c267dfec65)"><g clip-rule="nonzero" clip-path="url(#9ec5568d92)"><g clip-rule="nonzero" clip-path="url(#83831ee718)"><path style=" stroke:none;fill-rule:nonzero;fill:#000000;fill-opacity:1;" d="M 153.125 317.898438 C 152.5625 317.957031 152.003906 318.042969 151.449219 318.15625 C 150.894531 318.269531 150.347656 318.410156 149.804688 318.578125 C 149.261719 318.746094 148.730469 318.941406 148.210938 319.160156 C 147.6875 319.378906 147.175781 319.625 146.679688 319.894531 C 146.179688 320.164062 145.699219 320.457031 145.230469 320.777344 C 144.757812 321.09375 144.308594 321.433594 143.871094 321.796875 C 143.433594 322.15625 143.019531 322.539062 142.621094 322.941406 C 142.222656 323.347656 141.84375 323.765625 141.488281 324.207031 C 141.128906 324.648438 140.796875 325.105469 140.484375 325.578125 C 140.171875 326.050781 139.882812 326.535156 139.621094 327.039062 C 139.355469 327.539062 139.117188 328.050781 138.902344 328.578125 C 138.691406 329.101562 138.503906 329.636719 138.339844 330.179688 C 138.179688 330.722656 138.046875 331.273438 137.9375 331.828125 C 137.832031 332.382812 137.75 332.945312 137.699219 333.507812 C 137.648438 334.074219 137.621094 334.636719 137.625 335.203125 C 137.628906 335.773438 137.660156 336.335938 137.71875 336.898438 C 137.777344 337.464844 137.863281 338.023438 137.980469 338.578125 C 138.09375 339.132812 138.234375 339.679688 138.402344 340.222656 C 138.570312 340.761719 138.761719 341.292969 138.984375 341.816406 C 139.203125 342.339844 139.449219 342.847656 139.71875 343.347656 C 139.988281 343.84375 140.28125 344.328125 140.597656 344.796875 C 140.917969 345.265625 141.257812 345.71875 141.617188 346.15625 C 141.980469 346.589844 142.363281 347.007812 142.765625 347.40625 C 143.167969 347.804688 143.589844 348.183594 144.03125 348.539062 C 144.46875 348.894531 144.925781 349.230469 145.398438 349.542969 C 145.871094 349.855469 146.359375 350.140625 146.859375 350.40625 C 147.363281 350.671875 147.875 350.910156 148.398438 351.125 C 148.925781 351.335938 149.457031 351.523438 150.003906 351.683594 C 150.546875 351.847656 151.09375 351.980469 151.652344 352.089844 C 152.207031 352.195312 152.769531 352.273438 153.332031 352.328125 C 153.894531 352.378906 154.460938 352.402344 155.027344 352.402344 C 155.59375 352.398438 156.160156 352.367188 156.722656 352.308594 C 157.285156 352.25 157.847656 352.160156 158.402344 352.046875 C 158.957031 351.933594 159.503906 351.792969 160.046875 351.625 C 160.585938 351.457031 161.117188 351.265625 161.640625 351.042969 C 162.160156 350.824219 162.671875 350.578125 163.171875 350.308594 C 163.667969 350.039062 164.152344 349.746094 164.621094 349.429688 C 165.089844 349.109375 165.542969 348.769531 165.980469 348.410156 C 166.414062 348.046875 166.832031 347.664062 167.230469 347.261719 C 167.628906 346.859375 168.003906 346.4375 168.363281 345.996094 C 168.71875 345.554688 169.054688 345.101562 169.367188 344.625 C 169.675781 344.152344 169.964844 343.667969 170.230469 343.164062 C 170.492188 342.664062 170.730469 342.152344 170.945312 341.625 C 171.160156 341.101562 171.347656 340.566406 171.507812 340.023438 C 171.667969 339.480469 171.804688 338.933594 171.910156 338.375 C 172.019531 337.820312 172.097656 337.257812 172.148438 336.695312 C 172.203125 336.128906 172.226562 335.566406 172.222656 335 C 172.21875 334.433594 172.1875 333.867188 172.128906 333.304688 C 172.070312 332.742188 171.984375 332.179688 171.871094 331.625 C 171.753906 331.070312 171.613281 330.523438 171.445312 329.984375 C 171.277344 329.441406 171.082031 328.910156 170.863281 328.390625 C 170.644531 327.867188 170.398438 327.359375 170.128906 326.859375 C 169.855469 326.363281 169.5625 325.878906 169.246094 325.410156 C 168.929688 324.941406 168.589844 324.488281 168.226562 324.054688 C 167.863281 323.617188 167.480469 323.199219 167.078125 322.800781 C 166.675781 322.40625 166.253906 322.027344 165.816406 321.671875 C 165.375 321.3125 164.917969 320.980469 164.445312 320.667969 C 163.972656 320.355469 163.484375 320.066406 162.984375 319.804688 C 162.484375 319.539062 161.972656 319.300781 161.445312 319.085938 C 160.921875 318.871094 160.386719 318.683594 159.84375 318.523438 C 159.300781 318.363281 158.753906 318.226562 158.195312 318.121094 C 157.640625 318.011719 157.082031 317.933594 156.515625 317.878906 C 155.953125 317.828125 155.386719 317.800781 154.820312 317.804688 C 154.253906 317.808594 153.691406 317.839844 153.125 317.898438 Z M 155.824219 343.703125 C 155.257812 343.761719 154.695312 343.765625 154.128906 343.714844 C 153.5625 343.664062 153.007812 343.554688 152.464844 343.394531 C 151.917969 343.230469 151.394531 343.019531 150.894531 342.753906 C 150.390625 342.488281 149.917969 342.179688 149.476562 341.820312 C 149.035156 341.464844 148.632812 341.066406 148.273438 340.628906 C 147.910156 340.191406 147.59375 339.722656 147.320312 339.222656 C 147.050781 338.726562 146.832031 338.203125 146.664062 337.660156 C 146.496094 337.121094 146.382812 336.566406 146.324219 336 C 146.261719 335.4375 146.261719 334.871094 146.3125 334.304688 C 146.363281 333.738281 146.472656 333.183594 146.632812 332.640625 C 146.792969 332.097656 147.007812 331.574219 147.273438 331.070312 C 147.539062 330.566406 147.847656 330.097656 148.207031 329.65625 C 148.5625 329.214844 148.960938 328.8125 149.398438 328.449219 C 149.835938 328.085938 150.304688 327.769531 150.800781 327.5 C 151.300781 327.226562 151.824219 327.007812 152.363281 326.839844 C 152.90625 326.671875 153.460938 326.558594 154.027344 326.5 C 154.589844 326.441406 155.15625 326.4375 155.722656 326.488281 C 156.285156 326.542969 156.84375 326.648438 157.386719 326.808594 C 157.929688 326.972656 158.453125 327.183594 158.957031 327.449219 C 159.460938 327.714844 159.929688 328.027344 160.371094 328.382812 C 160.8125 328.742188 161.214844 329.136719 161.578125 329.574219 C 161.941406 330.011719 162.257812 330.480469 162.527344 330.980469 C 162.800781 331.480469 163.019531 332 163.1875 332.542969 C 163.355469 333.085938 163.46875 333.636719 163.527344 334.203125 C 163.585938 334.769531 163.589844 335.332031 163.535156 335.898438 C 163.484375 336.464844 163.375 337.019531 163.214844 337.5625 C 163.050781 338.105469 162.839844 338.628906 162.574219 339.132812 C 162.308594 339.632812 161.996094 340.105469 161.640625 340.546875 C 161.28125 340.988281 160.886719 341.390625 160.449219 341.753906 C 160.011719 342.117188 159.542969 342.433594 159.046875 342.703125 C 158.546875 342.972656 158.027344 343.195312 157.484375 343.363281 C 156.941406 343.53125 156.386719 343.644531 155.824219 343.703125 Z M 155.824219 343.703125 "/></g></g></g><g clip-rule="nonzero" clip-path="url(#5997271164)"><g clip-rule="nonzero" clip-path="url(#6800e0f614)"><g clip-rule="nonzero" clip-path="url(#537ead49d1)"><path style=" stroke:none;fill-rule:nonzero;fill:#000000;fill-opacity:1;" d="M 325.011719 137.550781 L 325.007812 137.550781 C 324.246094 137.632812 323.554688 137.894531 322.933594 138.34375 C 322.3125 138.789062 321.84375 139.363281 321.523438 140.058594 L 297.980469 191.722656 L 274.757812 185.019531 L 296.058594 138.289062 C 296.195312 137.992188 296.292969 137.679688 296.359375 137.355469 C 296.425781 137.035156 296.453125 136.707031 296.445312 136.378906 C 296.4375 136.050781 296.390625 135.726562 296.308594 135.40625 C 296.222656 135.089844 296.105469 134.785156 295.953125 134.492188 C 295.800781 134.203125 295.617188 133.929688 295.402344 133.679688 C 295.1875 133.429688 294.949219 133.207031 294.683594 133.015625 C 294.417969 132.820312 294.136719 132.65625 293.832031 132.527344 C 293.53125 132.394531 293.21875 132.300781 292.894531 132.242188 C 291.246094 131.9375 289.585938 131.714844 287.914062 131.574219 C 286.242188 131.433594 284.570312 131.371094 282.894531 131.390625 C 281.214844 131.414062 279.542969 131.515625 277.878906 131.695312 C 276.210938 131.878906 274.558594 132.144531 272.917969 132.484375 C 271.273438 132.828125 269.652344 133.253906 268.054688 133.753906 C 266.453125 134.253906 264.882812 134.832031 263.335938 135.484375 C 261.792969 136.140625 260.285156 136.867188 258.8125 137.664062 C 257.335938 138.464844 255.90625 139.335938 254.519531 140.273438 C 253.128906 141.214844 251.789062 142.21875 250.496094 143.289062 C 249.207031 144.359375 247.96875 145.488281 246.789062 146.675781 C 245.605469 147.867188 244.484375 149.109375 243.421875 150.410156 C 242.363281 151.707031 241.367188 153.054688 240.4375 154.449219 C 239.507812 155.84375 238.648438 157.28125 237.855469 158.761719 C 237.066406 160.238281 236.351562 161.753906 235.707031 163.300781 C 235.0625 164.851562 234.496094 166.425781 234.007812 168.03125 C 233.515625 169.632812 233.105469 171.257812 232.773438 172.898438 L 217.726562 168.558594 C 217.421875 168.46875 217.105469 168.414062 216.789062 168.398438 C 216.46875 168.378906 216.152344 168.394531 215.835938 168.445312 C 215.519531 168.496094 215.210938 168.582031 214.914062 168.699219 C 214.617188 168.820312 214.339844 168.96875 214.074219 169.152344 C 213.8125 169.332031 213.570312 169.539062 213.355469 169.777344 C 213.136719 170.011719 212.949219 170.265625 212.785156 170.542969 C 212.625 170.820312 212.496094 171.109375 212.402344 171.417969 C 212.304688 171.722656 212.246094 172.035156 212.21875 172.351562 C 211.695312 178.453125 212.03125 184.507812 213.230469 190.515625 C 214.429688 196.523438 216.441406 202.242188 219.265625 207.679688 L 146.785156 297.074219 C 145.59375 297.328125 144.417969 297.636719 143.257812 298 C 142.09375 298.367188 140.953125 298.78125 139.828125 299.253906 C 138.707031 299.726562 137.609375 300.25 136.535156 300.824219 C 135.460938 301.398438 134.417969 302.019531 133.402344 302.691406 C 132.386719 303.363281 131.40625 304.082031 130.457031 304.847656 C 129.511719 305.609375 128.601562 306.417969 127.730469 307.269531 C 126.855469 308.117188 126.027344 309.007812 125.238281 309.933594 C 124.449219 310.859375 123.707031 311.824219 123.007812 312.820312 C 122.308594 313.816406 121.660156 314.847656 121.058594 315.90625 C 120.457031 316.960938 119.90625 318.046875 119.40625 319.15625 C 118.90625 320.265625 118.457031 321.398438 118.066406 322.550781 C 117.671875 323.703125 117.332031 324.871094 117.046875 326.054688 C 116.761719 327.238281 116.535156 328.433594 116.363281 329.636719 C 116.191406 330.84375 116.074219 332.054688 116.015625 333.269531 C 115.957031 334.484375 115.957031 335.699219 116.011719 336.917969 C 116.066406 338.132812 116.179688 339.34375 116.347656 340.550781 C 116.515625 341.753906 116.742188 342.949219 117.023438 344.136719 C 117.304688 345.320312 117.640625 346.488281 118.03125 347.640625 C 118.421875 348.792969 118.867188 349.925781 119.363281 351.039062 C 119.859375 352.148438 120.410156 353.234375 121.007812 354.292969 C 121.605469 355.355469 122.253906 356.382812 122.949219 357.382812 C 123.644531 358.382812 124.386719 359.347656 125.171875 360.277344 C 125.960938 361.207031 126.785156 362.097656 127.65625 362.949219 C 128.527344 363.800781 129.433594 364.609375 130.378906 365.378906 C 131.324219 366.144531 132.304688 366.863281 133.316406 367.539062 C 134.332031 368.214844 135.375 368.839844 136.445312 369.417969 C 137.519531 369.996094 138.613281 370.519531 139.738281 370.992188 C 140.859375 371.46875 142 371.886719 143.160156 372.253906 C 144.320312 372.621094 145.496094 372.933594 146.6875 373.191406 C 147.875 373.449219 149.074219 373.648438 150.285156 373.792969 C 151.492188 373.9375 152.707031 374.023438 153.921875 374.054688 C 155.140625 374.085938 156.355469 374.058594 157.570312 373.972656 C 158.785156 373.890625 159.992188 373.75 161.195312 373.550781 C 162.394531 373.355469 163.585938 373.101562 164.761719 372.792969 C 165.941406 372.484375 167.101562 372.121094 168.246094 371.703125 C 169.390625 371.285156 170.511719 370.816406 171.609375 370.292969 C 172.710938 369.769531 173.78125 369.199219 174.828125 368.574219 C 175.875 367.949219 176.886719 367.277344 177.871094 366.558594 C 178.851562 365.84375 179.800781 365.078125 180.710938 364.269531 C 181.621094 363.464844 182.492188 362.613281 183.324219 361.726562 C 184.15625 360.835938 184.945312 359.910156 185.6875 358.945312 C 186.433594 357.984375 187.132812 356.988281 187.78125 355.960938 C 188.433594 354.929688 189.035156 353.875 189.585938 352.789062 C 190.136719 351.703125 190.636719 350.59375 191.085938 349.460938 C 191.535156 348.332031 191.929688 347.179688 192.269531 346.011719 C 192.609375 344.839844 192.890625 343.660156 193.121094 342.464844 C 193.351562 341.269531 193.523438 340.0625 193.636719 338.851562 C 193.753906 337.640625 193.8125 336.425781 193.816406 335.207031 L 269.207031 242.21875 C 270.769531 242.40625 272.335938 242.535156 273.90625 242.609375 C 275.476562 242.683594 277.046875 242.699219 278.617188 242.660156 C 280.191406 242.617188 281.757812 242.519531 283.324219 242.363281 C 284.886719 242.210938 286.445312 241.996094 287.996094 241.730469 C 289.542969 241.460938 291.082031 241.136719 292.605469 240.753906 C 294.132812 240.375 295.640625 239.9375 297.136719 239.449219 C 298.628906 238.957031 300.105469 238.414062 301.558594 237.816406 C 303.011719 237.21875 304.441406 236.570312 305.851562 235.867188 C 307.257812 235.164062 308.636719 234.414062 309.988281 233.609375 C 311.339844 232.808594 312.664062 231.957031 313.953125 231.058594 C 315.242188 230.160156 316.5 229.214844 317.71875 228.226562 C 318.941406 227.234375 320.125 226.203125 321.273438 225.125 C 322.417969 224.050781 323.523438 222.933594 324.589844 221.777344 C 325.652344 220.621094 326.675781 219.425781 327.652344 218.195312 C 328.632812 216.964844 329.5625 215.699219 330.449219 214.398438 C 331.335938 213.101562 332.171875 211.769531 332.960938 210.410156 C 333.75 209.050781 334.488281 207.664062 335.175781 206.25 C 335.867188 204.835938 336.5 203.398438 337.085938 201.9375 C 337.667969 200.480469 338.199219 199 338.671875 197.5 C 339.148438 196.003906 339.570312 194.488281 339.9375 192.960938 C 340.300781 191.429688 340.609375 189.890625 340.863281 188.335938 C 341.117188 186.785156 341.3125 185.226562 341.453125 183.660156 C 341.59375 182.09375 341.675781 180.527344 341.703125 178.953125 C 341.726562 177.382812 341.695312 175.808594 341.605469 174.242188 C 341.519531 172.671875 341.371094 171.105469 341.167969 169.546875 C 340.96875 167.988281 340.707031 166.4375 340.390625 164.898438 C 340.078125 163.355469 339.707031 161.832031 339.277344 160.316406 C 338.851562 158.804688 338.371094 157.308594 337.835938 155.828125 C 337.300781 154.351562 336.710938 152.894531 336.070312 151.460938 C 335.425781 150.023438 334.734375 148.613281 333.988281 147.230469 C 333.246094 145.84375 332.449219 144.488281 331.609375 143.160156 C 330.765625 141.832031 329.875 140.539062 328.9375 139.277344 C 328.480469 138.664062 327.902344 138.203125 327.203125 137.894531 C 326.503906 137.585938 325.773438 137.472656 325.011719 137.550781 Z M 249.976562 156.058594 C 251.046875 154.742188 252.1875 153.496094 253.398438 152.3125 C 254.613281 151.128906 255.894531 150.023438 257.238281 148.992188 C 258.582031 147.960938 259.984375 147.011719 261.4375 146.144531 C 262.894531 145.277344 264.394531 144.5 265.945312 143.808594 C 267.492188 143.117188 269.074219 142.519531 270.691406 142.015625 C 272.308594 141.511719 273.949219 141.101562 275.617188 140.789062 C 277.28125 140.476562 278.960938 140.265625 280.648438 140.148438 C 282.339844 140.035156 284.03125 140.019531 285.726562 140.105469 L 266.363281 182.597656 L 241.09375 175.300781 C 241.75 171.773438 242.828125 168.382812 244.332031 165.125 C 245.835938 161.867188 247.71875 158.847656 249.976562 156.058594 Z M 320.527344 213.257812 C 318.976562 215.160156 317.308594 216.949219 315.523438 218.632812 C 313.738281 220.316406 311.851562 221.875 309.863281 223.3125 C 307.875 224.75 305.800781 226.054688 303.640625 227.21875 C 301.484375 228.386719 299.257812 229.40625 296.96875 230.285156 C 294.675781 231.160156 292.335938 231.886719 289.953125 232.457031 C 287.566406 233.027344 285.152344 233.441406 282.710938 233.699219 C 280.273438 233.957031 277.828125 234.054688 275.375 233.992188 C 272.921875 233.929688 270.484375 233.710938 268.058594 233.328125 C 267.296875 233.210938 266.554688 233.289062 265.835938 233.566406 C 265.117188 233.84375 264.511719 234.28125 264.027344 234.878906 L 186.105469 330.988281 C 185.421875 331.832031 185.101562 332.800781 185.144531 333.886719 C 185.183594 334.851562 185.179688 335.816406 185.125 336.777344 C 185.074219 337.742188 184.976562 338.703125 184.832031 339.65625 C 184.6875 340.609375 184.5 341.554688 184.265625 342.492188 C 184.03125 343.429688 183.753906 344.351562 183.429688 345.261719 C 183.109375 346.171875 182.742188 347.0625 182.335938 347.9375 C 181.925781 348.8125 181.476562 349.664062 180.988281 350.496094 C 180.5 351.328125 179.972656 352.136719 179.40625 352.917969 C 178.839844 353.699219 178.234375 354.449219 177.597656 355.175781 C 176.957031 355.898438 176.289062 356.589844 175.582031 357.25 C 174.878906 357.910156 174.144531 358.53125 173.378906 359.121094 C 172.613281 359.710938 171.824219 360.261719 171.007812 360.777344 C 170.191406 361.289062 169.351562 361.761719 168.488281 362.195312 C 167.625 362.628906 166.742188 363.019531 165.84375 363.371094 C 164.945312 363.71875 164.03125 364.023438 163.101562 364.285156 C 162.171875 364.546875 161.234375 364.765625 160.28125 364.933594 C 159.332031 365.105469 158.378906 365.234375 157.414062 365.3125 C 156.453125 365.394531 155.492188 365.429688 154.523438 365.417969 C 153.558594 365.402344 152.597656 365.347656 151.636719 365.242188 C 150.679688 365.136719 149.726562 364.988281 148.78125 364.792969 C 147.835938 364.597656 146.902344 364.359375 145.980469 364.074219 C 145.058594 363.789062 144.152344 363.464844 143.261719 363.09375 C 142.371094 362.722656 141.496094 362.308594 140.648438 361.855469 C 139.796875 361.398438 138.96875 360.90625 138.164062 360.371094 C 137.359375 359.839844 136.582031 359.269531 135.832031 358.660156 C 135.082031 358.054688 134.363281 357.410156 133.675781 356.734375 C 132.988281 356.058594 132.332031 355.351562 131.710938 354.609375 C 131.089844 353.871094 130.507812 353.105469 129.960938 352.308594 C 129.414062 351.515625 128.90625 350.695312 128.4375 349.851562 C 127.96875 349.007812 127.539062 348.144531 127.152344 347.257812 C 126.765625 346.375 126.425781 345.472656 126.125 344.554688 C 125.824219 343.640625 125.570312 342.710938 125.359375 341.769531 C 125.144531 340.828125 124.980469 339.875 124.859375 338.917969 C 124.738281 337.960938 124.664062 337 124.636719 336.035156 C 124.609375 335.070312 124.625 334.105469 124.691406 333.144531 C 124.753906 332.179688 124.863281 331.222656 125.019531 330.269531 C 125.175781 329.316406 125.375 328.375 125.621094 327.441406 C 125.867188 326.507812 126.15625 325.589844 126.488281 324.683594 C 126.824219 323.777344 127.199219 322.890625 127.617188 322.019531 C 128.035156 321.152344 128.496094 320.304688 128.996094 319.476562 C 129.492188 318.652344 130.03125 317.851562 130.609375 317.078125 C 131.183594 316.300781 131.796875 315.558594 132.441406 314.839844 C 133.089844 314.125 133.769531 313.441406 134.484375 312.792969 C 135.195312 312.140625 135.9375 311.523438 136.707031 310.945312 C 137.480469 310.367188 138.277344 309.824219 139.101562 309.320312 C 139.925781 308.816406 140.769531 308.351562 141.636719 307.929688 C 142.503906 307.507812 143.390625 307.128906 144.292969 306.789062 C 145.199219 306.453125 146.117188 306.15625 147.050781 305.90625 C 147.980469 305.65625 148.921875 305.453125 149.875 305.292969 C 150.949219 305.109375 151.828125 304.597656 152.511719 303.75 L 227.8125 210.871094 C 228.089844 210.53125 228.308594 210.160156 228.472656 209.753906 C 228.632812 209.347656 228.730469 208.925781 228.765625 208.488281 C 228.800781 208.054688 228.769531 207.621094 228.671875 207.195312 C 228.578125 206.769531 228.417969 206.367188 228.199219 205.988281 C 225.769531 201.792969 223.914062 197.359375 222.632812 192.683594 C 221.351562 188.007812 220.6875 183.25 220.640625 178.402344 L 234.261719 182.335938 C 234.511719 182.492188 234.777344 182.621094 235.054688 182.722656 L 267.488281 192.085938 C 267.746094 192.132812 268.011719 192.15625 268.277344 192.15625 L 299.167969 201.074219 C 299.667969 201.21875 300.175781 201.269531 300.691406 201.234375 C 301.210938 201.195312 301.707031 201.066406 302.175781 200.847656 C 302.648438 200.632812 303.066406 200.339844 303.433594 199.972656 C 303.800781 199.601562 304.089844 199.183594 304.304688 198.710938 L 326.117188 150.855469 C 326.78125 152.070312 327.402344 153.308594 327.980469 154.566406 C 328.554688 155.828125 329.082031 157.105469 329.566406 158.40625 C 330.046875 159.703125 330.476562 161.019531 330.859375 162.351562 C 331.246094 163.683594 331.578125 165.027344 331.863281 166.382812 C 332.148438 167.738281 332.378906 169.101562 332.5625 170.476562 C 332.746094 171.847656 332.878906 173.226562 332.960938 174.609375 C 333.039062 175.992188 333.070312 177.375 333.050781 178.761719 C 333.027344 180.144531 332.957031 181.527344 332.832031 182.910156 C 332.707031 184.289062 332.535156 185.660156 332.308594 187.027344 C 332.082031 188.394531 331.808594 189.75 331.484375 191.097656 C 331.15625 192.445312 330.78125 193.777344 330.359375 195.097656 C 329.933594 196.414062 329.460938 197.714844 328.941406 199 C 328.417969 200.28125 327.851562 201.546875 327.238281 202.789062 C 326.625 204.03125 325.964844 205.246094 325.261719 206.441406 C 324.558594 207.632812 323.808594 208.796875 323.019531 209.9375 C 322.230469 211.074219 321.398438 212.179688 320.523438 213.257812 Z M 320.527344 213.257812 "/></g></g></g><g clip-rule="nonzero" clip-path="url(#e03696856d)"><g clip-rule="nonzero" clip-path="url(#e6533d8d7c)"><g clip-rule="nonzero" clip-path="url(#5b846fded3)"><path style=" stroke:none;fill-rule:nonzero;fill:#000000;fill-opacity:1;" d="M 241.171875 204.097656 L 243.351562 195.722656 L 293.921875 208.886719 L 291.742188 217.261719 Z M 241.171875 204.097656 "/></g></g></g></g></svg>