<svg xmlns="http://www.w3.org/2000/svg" viewBox="0 0 800 500" fill="none">
  <rect width="800" height="500" rx="8" fill="#0f0f17"/>
  <rect x="0" y="0" width="220" height="500" fill="#111122"/>
  <rect x="20" y="30" width="180" height="24" rx="6" fill="#06b6d4" opacity="0.2"/>
  <rect x="35" y="36" width="120" height="12" rx="3" fill="#06b6d4" opacity="0.6"/>
  <rect x="20" y="74" width="180" height="14" rx="4" fill="#2a2a3e"/>
  <rect x="30" y="96" width="160" height="10" rx="3" fill="#1f1f33"/>
  <rect x="30" y="114" width="160" height="10" rx="3" fill="#1f1f33"/>
  <rect x="30" y="132" width="160" height="10" rx="3" fill="#1f1f33"/>
  <rect x="20" y="158" width="180" height="14" rx="4" fill="#2a2a3e"/>
  <rect x="30" y="180" width="160" height="10" rx="3" fill="#1f1f33"/>
  <rect x="30" y="198" width="160" height="10" rx="3" fill="#1f1f33"/>
  <rect x="30" y="216" width="160" height="10" rx="3" fill="#1f1f33"/>
  <rect x="30" y="234" width="160" height="10" rx="3" fill="#1f1f33"/>
  <rect x="20" y="260" width="180" height="14" rx="4" fill="#2a2a3e"/>
  <rect x="30" y="282" width="160" height="10" rx="3" fill="#06b6d4" opacity="0.4"/>
  <rect x="30" y="300" width="160" height="10" rx="3" fill="#1f1f33"/>
  <rect x="30" y="318" width="160" height="10" rx="3" fill="#1f1f33"/>
  <rect x="240" y="30" width="540" height="60" rx="12" fill="#1a1a2e"/>
  <rect x="260" y="48" width="250" height="16" rx="4" fill="#2a2a3e"/>
  <rect x="650" y="44" width="110" height="28" rx="6" fill="#06b6d4" opacity="0.2"/>
  <rect x="240" y="110" width="540" height="100" rx="12" fill="#06b6d4" opacity="0.08" stroke="#06b6d4" stroke-width="1" opacity="0.15"/>
  <circle cx="280" cy="145" r="16" fill="#06b6d4" opacity="0.2"/>
  <rect x="310" y="130" width="200" height="14" rx="4" fill="#06b6d4" opacity="0.4"/>
  <rect x="310" y="152" width="400" height="10" rx="3" fill="#1f1f33"/>
  <rect x="310" y="168" width="350" height="10" rx="3" fill="#1f1f33"/>
  <rect x="240" y="230" width="540" height="240" rx="12" fill="#1a1a2e"/>
  <rect x="260" y="250" width="200" height="18" rx="4" fill="#2a2a3e"/>
  <rect x="260" y="285" width="500" height="12" rx="3" fill="#1f1f33"/>
  <rect x="260" y="305" width="500" height="12" rx="3" fill="#1f1f33"/>
  <rect x="260" y="325" width="480" height="12" rx="3" fill="#1f1f33"/>
  <rect x="260" y="345" width="500" height="12" rx="3" fill="#1f1f33"/>
  <rect x="260" y="365" width="450" height="12" rx="3" fill="#1f1f33"/>
  <rect x="260" y="395" width="500" height="12" rx="3" fill="#1f1f33"/>
  <rect x="260" y="415" width="300" height="12" rx="3" fill="#1f1f33"/>
  <rect x="260" y="445" width="500" height="12" rx="3" fill="#1f1f33"/>
</svg>
