<svg xmlns="http://www.w3.org/2000/svg" width="1280" height="800" viewBox="0 0 1280 800">
  <rect width="1280" height="800" fill="#111118"/>
  <rect x="40" y="30" width="200" height="14" rx="7" fill="#22c55e" opacity="0.5"/>
  <rect x="40" y="70" width="740" height="400" rx="12" fill="#1a1a28" stroke="#2a2a3a" stroke-width="1"/>
  <!-- Table header -->
  <rect x="60" y="90" width="700" height="35" rx="6" fill="#22c55e" opacity="0.08"/>
  <rect x="80" y="102" width="80" height="8" rx="4" fill="#22c55e" opacity="0.4"/>
  <rect x="240" y="102" width="60" height="8" rx="4" fill="#22c55e" opacity="0.4"/>
  <rect x="380" y="102" width="70" height="8" rx="4" fill="#22c55e" opacity="0.4"/>
  <rect x="530" y="102" width="50" height="8" rx="4" fill="#22c55e" opacity="0.4"/>
  <rect x="650" y="102" width="60" height="8" rx="4" fill="#22c55e" opacity="0.4"/>
  <!-- Table rows -->
  <rect x="60" y="140" width="700" height="30" rx="0" fill="transparent"/>
  <rect x="80" y="150" width="100" height="7" rx="3" fill="#94a3b8" opacity="0.15"/>
  <rect x="240" y="150" width="40" height="7" rx="3" fill="#94a3b8" opacity="0.15"/>
  <rect x="380" y="150" width="55" height="7" rx="3" fill="#94a3b8" opacity="0.15"/>
  <rect x="530" y="150" width="35" height="7" rx="3" fill="#94a3b8" opacity="0.15"/>
  <rect x="650" y="150" width="50" height="7" rx="3" fill="#94a3b8" opacity="0.15"/>
  <line x1="60" y1="170" x2="760" y2="170" stroke="#2a2a3a" stroke-width="1"/>
  <rect x="80" y="182" width="90" height="7" rx="3" fill="#94a3b8" opacity="0.15"/>
  <rect x="240" y="182" width="50" height="7" rx="3" fill="#94a3b8" opacity="0.15"/>
  <rect x="380" y="182" width="65" height="7" rx="3" fill="#94a3b8" opacity="0.15"/>
  <rect x="530" y="182" width="30" height="7" rx="3" fill="#94a3b8" opacity="0.15"/>
  <rect x="650" y="182" width="45" height="7" rx="3" fill="#94a3b8" opacity="0.15"/>
  <line x1="60" y1="202" x2="760" y2="202" stroke="#2a2a3a" stroke-width="1"/>
  <rect x="80" y="214" width="110" height="7" rx="3" fill="#94a3b8" opacity="0.15"/>
  <rect x="240" y="214" width="45" height="7" rx="3" fill="#94a3b8" opacity="0.15"/>
  <rect x="380" y="214" width="60" height="7" rx="3" fill="#94a3b8" opacity="0.15"/>
  <rect x="530" y="214" width="40" height="7" rx="3" fill="#94a3b8" opacity="0.15"/>
  <rect x="650" y="214" width="55" height="7" rx="3" fill="#94a3b8" opacity="0.15"/>
  <!-- Side panel -->
  <rect x="820" y="70" width="420" height="200" rx="12" fill="#1a1a28" stroke="#2a2a3a" stroke-width="1"/>
  <rect x="845" y="95" width="120" height="10" rx="5" fill="#f8fafc" opacity="0.12"/>
  <rect x="845" y="125" width="180" height="50" rx="8" fill="#22c55e" opacity="0.1" stroke="#22c55e" stroke-opacity="0.3" stroke-width="1"/>
  <rect x="845" y="195" width="180" height="50" rx="8" fill="#7c3aed" opacity="0.1" stroke="#7c3aed" stroke-opacity="0.3" stroke-width="1"/>
  <text x="640" y="560" text-anchor="middle" font-family="sans-serif" font-size="24" fill="#94a3b8" opacity="0.5">Replace with actual screenshot</text>
  <text x="640" y="600" text-anchor="middle" font-family="monospace" font-size="14" fill="#22c55e" opacity="0.4">assets/pos-screenshot.png</text>
</svg>
