<svg xmlns="http://www.w3.org/2000/svg" viewBox="0 0 800 500" fill="none">
  <rect width="800" height="500" rx="8" fill="#0f0f17"/>
  <rect x="0" y="0" width="200" height="500" fill="#111122"/>
  <rect x="20" y="30" width="160" height="20" rx="4" fill="#7c3aed" opacity="0.3"/>
  <rect x="30" y="34" width="100" height="12" rx="3" fill="#7c3aed" opacity="0.7"/>
  <rect x="20" y="70" width="160" height="14" rx="4" fill="#1f1f33"/>
  <rect x="20" y="94" width="160" height="14" rx="4" fill="#2a2a3e"/>
  <rect x="20" y="118" width="160" height="14" rx="4" fill="#1f1f33"/>
  <rect x="20" y="142" width="160" height="14" rx="4" fill="#1f1f33"/>
  <rect x="20" y="166" width="160" height="14" rx="4" fill="#1f1f33"/>
  <rect x="220" y="30" width="560" height="60" rx="12" fill="#1a1a2e"/>
  <rect x="240" y="48" width="200" height="16" rx="4" fill="#2a2a3e"/>
  <rect x="640" y="45" width="120" height="30" rx="8" fill="#7c3aed" opacity="0.2"/>
  <rect x="220" y="110" width="270" height="160" rx="12" fill="#1a1a2e"/>
  <rect x="240" y="130" width="180" height="14" rx="4" fill="#2a2a3e"/>
  <circle cx="260" cy="170" r="10" fill="#22c55e" opacity="0.3"/>
  <rect x="280" y="164" width="180" height="12" rx="3" fill="#1f1f33"/>
  <circle cx="260" cy="200" r="10" fill="#7c3aed" opacity="0.5"/>
  <rect x="280" y="194" width="160" height="12" rx="3" fill="#1f1f33"/>
  <circle cx="260" cy="230" r="10" fill="transparent" stroke="#2a2a3e" stroke-width="2"/>
  <rect x="280" y="224" width="140" height="12" rx="3" fill="#1f1f33"/>
  <rect x="510" y="110" width="270" height="160" rx="12" fill="#1a1a2e"/>
  <rect x="530" y="130" width="120" height="14" rx="4" fill="#2a2a3e"/>
  <rect x="530" y="155" width="230" height="80" rx="8" fill="#12121e"/>
  <rect x="550" y="170" width="60" height="50" rx="4" fill="#7c3aed" opacity="0.4"/>
  <rect x="620" y="180" width="60" height="40" rx="4" fill="#06b6d4" opacity="0.4"/>
  <rect x="690" y="190" width="50" height="30" rx="4" fill="#f59e0b" opacity="0.4"/>
  <rect x="220" y="290" width="560" height="180" rx="12" fill="#1a1a2e"/>
  <rect x="240" y="310" width="160" height="14" rx="4" fill="#2a2a3e"/>
  <rect x="240" y="340" width="520" height="40" rx="8" fill="#12121e"/>
  <rect x="260" y="354" width="300" height="12" rx="3" fill="#1f1f33"/>
  <rect x="240" y="395" width="520" height="40" rx="8" fill="#12121e"/>
  <rect x="260" y="409" width="280" height="12" rx="3" fill="#1f1f33"/>
  <rect x="240" y="445" width="120" height="16" rx="4" fill="#22c55e" opacity="0.2"/>
  <rect x="250" y="449" width="80" height="8" rx="2" fill="#22c55e" opacity="0.5"/>
</svg>
